<svg width="144" height="20" viewBox="0 0 144 20" fill="none" xmlns="http://www.w3.org/2000/svg">
<path d="M8.242 0.791951H11.57L13.676 6.90195L15.808 0.791951H19.11L15.938 9.18995L18.278 15.066L23.504 0.73995H27.404L20.02 19.2H16.926L13.676 11.452L10.452 19.2H7.358L0 0.73995H3.848L9.1 15.066L11.388 9.18995L8.242 0.791951ZM34.227 19.46C32.7536 19.46 31.4796 19.1393 30.405 18.498C29.3476 17.8566 28.5243 17.0073 27.935 15.95C27.3456 14.8753 27.051 13.714 27.051 12.466C27.051 11.1833 27.337 10.0046 27.909 8.92995C28.4983 7.83795 29.3303 6.97128 30.405 6.32995C31.4796 5.67128 32.7623 5.34195 34.253 5.34195C35.7436 5.34195 37.0176 5.67128 38.075 6.32995C39.1323 6.97128 39.9383 7.82928 40.493 8.90395C41.065 9.96128 41.351 11.1053 41.351 12.336C41.351 12.7866 41.325 13.1766 41.273 13.506H30.743C30.8296 14.5633 31.2196 15.3953 31.913 16.002C32.6236 16.6086 33.4383 16.912 34.357 16.912C35.0503 16.912 35.7003 16.7473 36.307 16.418C36.931 16.0713 37.3556 15.6206 37.581 15.066L40.571 15.898C40.0683 16.938 39.2623 17.796 38.153 18.472C37.0436 19.1306 35.735 19.46 34.227 19.46ZM30.665 11.296H37.789C37.685 10.2733 37.295 9.44995 36.619 8.82595C35.9603 8.18462 35.1543 7.86395 34.201 7.86395C33.265 7.86395 32.459 8.18462 31.783 8.82595C31.1243 9.44995 30.7516 10.2733 30.665 11.296ZM52.0014 19.46C50.9614 19.46 50.0341 19.226 49.2194 18.758C48.4048 18.29 47.7634 17.6486 47.2954 16.834V19.2H44.2534V0.219951H47.7374V7.96795C48.2228 7.15328 48.8554 6.51195 49.6354 6.04395C50.4328 5.57595 51.3601 5.34195 52.4174 5.34195C53.5961 5.34195 54.6274 5.67128 55.5114 6.32995C56.4128 6.97128 57.1148 7.82928 57.6174 8.90395C58.1201 9.97862 58.3714 11.1573 58.3714 12.44C58.3714 13.7573 58.0941 14.9446 57.5394 16.002C56.9848 17.0593 56.2221 17.9 55.2514 18.524C54.2981 19.148 53.2148 19.46 52.0014 19.46ZM51.0394 16.496C51.7848 16.496 52.4348 16.314 52.9894 15.95C53.5614 15.586 54.0034 15.1006 54.3154 14.494C54.6448 13.87 54.8094 13.194 54.8094 12.466C54.8094 11.7206 54.6534 11.036 54.3414 10.412C54.0468 9.77062 53.6308 9.25928 53.0934 8.87795C52.5561 8.49662 51.9408 8.30595 51.2474 8.30595C50.4848 8.30595 49.7828 8.56595 49.1414 9.08595C48.5174 9.58862 48.0494 10.2126 47.7374 10.958V14.208C47.9628 14.884 48.4048 15.4386 49.0634 15.872C49.7221 16.288 50.3808 16.496 51.0394 16.496Z" fill="#2196F3"/>
<path d="M72.8479 5.57595C72.6919 5.40262 72.3626 5.17728 71.8599 4.89995C71.3573 4.60528 70.7506 4.34528 70.0399 4.11995C69.3466 3.87728 68.6273 3.75595 67.8819 3.75595C65.9233 3.75595 64.9439 4.44928 64.9439 5.83595C64.9439 6.33862 65.0999 6.73728 65.4119 7.03195C65.7239 7.32662 66.1919 7.57795 66.8159 7.78595C67.4399 7.99395 68.2199 8.21928 69.1559 8.46195C70.3693 8.77395 71.4179 9.13795 72.3019 9.55395C73.2033 9.96995 73.8879 10.5246 74.3559 11.218C74.8413 11.894 75.0839 12.7953 75.0839 13.922C75.0839 15.2393 74.7633 16.3053 74.1219 17.12C73.4979 17.9173 72.6659 18.498 71.6259 18.862C70.5859 19.226 69.4593 19.408 68.2459 19.408C66.8593 19.408 65.4813 19.2 64.1119 18.784C62.7599 18.3506 61.5553 17.7613 60.4979 17.016L62.0839 13.922C62.2399 14.078 62.5173 14.286 62.9159 14.546C63.3146 14.7886 63.7999 15.04 64.3719 15.3C64.9439 15.5426 65.5679 15.7506 66.2439 15.924C66.9199 16.0973 67.6046 16.184 68.2979 16.184C70.2739 16.184 71.2619 15.5513 71.2619 14.286C71.2619 13.7486 71.0626 13.3153 70.6639 12.986C70.2653 12.6566 69.7019 12.3793 68.9739 12.154C68.2633 11.9286 67.4313 11.6773 66.4779 11.4C65.2993 11.0706 64.3199 10.7066 63.5399 10.308C62.7773 9.89195 62.2053 9.38062 61.8239 8.77395C61.4426 8.14995 61.2519 7.36128 61.2519 6.40795C61.2519 5.14262 61.5466 4.08528 62.1359 3.23595C62.7426 2.36928 63.5573 1.71928 64.5799 1.28595C65.6026 0.835284 66.7379 0.60995 67.9859 0.60995C69.2686 0.60995 70.4646 0.81795 71.5739 1.23395C72.6833 1.64995 73.6366 2.12662 74.4339 2.66395L72.8479 5.57595ZM86.0966 18.498C85.6286 18.706 85.0479 18.914 84.3546 19.122C83.6786 19.33 82.9766 19.434 82.2486 19.434C81.6072 19.434 81.0179 19.3213 80.4806 19.096C79.9432 18.8706 79.5099 18.5153 79.1806 18.03C78.8686 17.5273 78.7126 16.8773 78.7126 16.08V8.25395H76.9186V5.57595H78.7126V1.15595H82.1966V5.57595H85.0566V8.25395H82.1966V14.91C82.1966 15.378 82.3179 15.716 82.5606 15.924C82.8206 16.132 83.1326 16.236 83.4966 16.236C83.8606 16.236 84.2159 16.1753 84.5626 16.054C84.9092 15.9326 85.1866 15.8286 85.3946 15.742L86.0966 18.498ZM88.5611 14.104V5.57595H92.0451V13.35C92.0451 15.4473 92.7991 16.496 94.3071 16.496C94.9831 16.496 95.6331 16.2966 96.2571 15.898C96.8984 15.482 97.4184 14.858 97.8171 14.026V5.57595H101.301V15.3C101.301 15.6813 101.362 15.95 101.483 16.106C101.604 16.2446 101.821 16.3313 102.133 16.366V19.2C101.786 19.2693 101.492 19.3126 101.249 19.33C101.024 19.3473 100.816 19.356 100.625 19.356C100.001 19.356 99.4897 19.2173 99.0911 18.94C98.7097 18.6453 98.4844 18.2466 98.4151 17.744L98.3371 16.652C97.7304 17.588 96.9504 18.29 95.9971 18.758C95.0437 19.226 93.9951 19.46 92.8511 19.46C91.4471 19.46 90.3811 19.0093 89.6531 18.108C88.9251 17.1893 88.5611 15.8546 88.5611 14.104ZM104.711 12.388C104.711 11.088 104.971 9.90062 105.491 8.82595C106.011 7.75128 106.731 6.90195 107.649 6.27795C108.568 5.65395 109.617 5.34195 110.795 5.34195C111.801 5.34195 112.702 5.59328 113.499 6.09595C114.314 6.58128 114.947 7.20528 115.397 7.96795V0.219951H118.881V15.3C118.881 15.6813 118.942 15.95 119.063 16.106C119.185 16.2446 119.393 16.3313 119.687 16.366V19.2C119.063 19.3213 118.569 19.382 118.205 19.382C117.581 19.382 117.061 19.226 116.645 18.914C116.247 18.602 116.021 18.1946 115.969 17.692L115.917 16.834C115.415 17.6833 114.73 18.3333 113.863 18.784C113.014 19.2346 112.121 19.46 111.185 19.46C109.92 19.46 108.802 19.148 107.831 18.524C106.861 17.8826 106.098 17.0333 105.543 15.976C104.989 14.9013 104.711 13.7053 104.711 12.388ZM115.397 14.208V10.958C115.12 10.1953 114.643 9.56262 113.967 9.05995C113.291 8.55728 112.598 8.30595 111.887 8.30595C111.177 8.30595 110.553 8.50528 110.015 8.90395C109.478 9.28528 109.062 9.79662 108.767 10.438C108.473 11.062 108.325 11.738 108.325 12.466C108.325 13.2113 108.49 13.896 108.819 14.52C109.149 15.1266 109.591 15.612 110.145 15.976C110.717 16.3226 111.367 16.496 112.095 16.496C112.754 16.496 113.404 16.2793 114.045 15.846C114.704 15.4126 115.155 14.8666 115.397 14.208ZM123.081 3.67795V0.219951H126.565V3.67795H123.081ZM123.081 19.2V5.57595H126.565V19.2H123.081ZM136.78 19.46C135.289 19.46 134.007 19.1393 132.932 18.498C131.875 17.8393 131.06 16.9726 130.488 15.898C129.916 14.8233 129.63 13.662 129.63 12.414C129.63 11.1486 129.916 9.97862 130.488 8.90395C131.077 7.82928 131.901 6.97128 132.958 6.32995C134.033 5.67128 135.307 5.34195 136.78 5.34195C138.253 5.34195 139.519 5.67128 140.576 6.32995C141.651 6.97128 142.474 7.82928 143.046 8.90395C143.618 9.97862 143.904 11.1486 143.904 12.414C143.904 13.662 143.618 14.8233 143.046 15.898C142.474 16.9726 141.651 17.8393 140.576 18.498C139.519 19.1393 138.253 19.46 136.78 19.46ZM133.218 12.414C133.218 13.2113 133.374 13.922 133.686 14.546C133.998 15.1526 134.423 15.6293 134.96 15.976C135.497 16.3226 136.104 16.496 136.78 16.496C137.439 16.496 138.037 16.3226 138.574 15.976C139.111 15.612 139.536 15.1266 139.848 14.52C140.177 13.896 140.342 13.1853 140.342 12.388C140.342 11.608 140.177 10.9146 139.848 10.308C139.536 9.68395 139.111 9.19862 138.574 8.85195C138.037 8.48795 137.439 8.30595 136.78 8.30595C136.104 8.30595 135.497 8.48795 134.96 8.85195C134.423 9.19862 133.998 9.68395 133.686 10.308C133.374 10.9146 133.218 11.6166 133.218 12.414Z" fill="black"/>
</svg>
